<svg xmlns="http://www.w3.org/2000/svg" xmlns:xlink="http://www.w3.org/1999/xlink" width="500" zoomAndPan="magnify" viewBox="0 0 375 374.999991" height="500" preserveAspectRatio="xMidYMid meet" version="1.0"><defs><g/><clipPath id="ea535b83b4"><path d="M 108.589844 88.078125 L 266.089844 88.078125 L 266.089844 225.328125 L 108.589844 225.328125 Z M 108.589844 88.078125 " clip-rule="nonzero"/></clipPath></defs><rect x="-37.5" width="450" fill="#ffffff" y="-37.499999" height="449.999989" fill-opacity="1"/><rect x="-37.5" width="450" fill="#120037" y="-37.499999" height="449.999989" fill-opacity="1"/><g clip-path="url(#ea535b83b4)"><path fill="#ffffff" d="M 240.097656 88.1875 C 239.921875 88.425781 239.746094 88.679688 239.582031 88.96875 C 223.898438 116.332031 208.144531 143.652344 192.394531 170.972656 C 191.328125 172.816406 190.269531 174.660156 189.203125 176.503906 C 188.816406 177.171875 188.332031 177.777344 187.695312 178.699219 C 174.398438 155.625 161.308594 132.925781 148.046875 109.90625 L 174.082031 109.90625 C 173.761719 110.574219 173.605469 110.976562 173.390625 111.351562 C 170.828125 115.839844 168.292969 120.34375 165.683594 124.808594 L 179.070312 147.941406 C 190.648438 127.871094 202.019531 108.140625 213.527344 88.1875 L 108.589844 88.1875 L 121.5 110.5 C 121.800781 110.796875 122.074219 111.167969 122.335938 111.636719 C 130.394531 125.726562 138.511719 139.796875 146.679688 153.820312 C 146.898438 154.195312 147.058594 154.554688 147.160156 154.886719 C 147.167969 154.917969 147.179688 154.949219 147.183594 154.984375 L 161.160156 179.128906 C 161.160156 179.125 161.164062 179.125 161.164062 179.117188 C 161.171875 179.117188 161.171875 179.109375 161.171875 179.109375 C 164.226562 184.398438 167.253906 189.640625 170.28125 194.867188 L 175.722656 204.277344 L 187.796875 225.164062 C 188.652344 223.703125 189.210938 222.757812 189.761719 221.796875 C 193.472656 215.355469 197.191406 208.910156 200.902344 202.46875 L 201.078125 202.164062 L 266.390625 88.1875 Z M 240.097656 88.1875 " fill-opacity="1" fill-rule="nonzero"/></g><g fill="#ffffff" fill-opacity="1"><g transform="translate(109.29251, 294.064639)"><g><path d="M 14.765625 -22 C 15.046875 -22.9375 15.554688 -23.710938 16.296875 -24.328125 C 17.035156 -24.953125 17.894531 -25.359375 18.875 -25.546875 C 19.851562 -25.742188 20.859375 -25.6875 21.890625 -25.375 L 15.09375 -3.40625 C 14.820312 -2.507812 14.316406 -1.75 13.578125 -1.125 C 13.210938 -0.789062 12.8125 -0.519531 12.375 -0.3125 C 11.9375 -0.101562 11.457031 0 10.9375 0 C 10.425781 0 9.953125 -0.101562 9.515625 -0.3125 C 9.078125 -0.519531 8.675781 -0.789062 8.3125 -1.125 C 7.570312 -1.75 7.066406 -2.507812 6.796875 -3.40625 L -0.03125 -25.375 C 1 -25.6875 2.007812 -25.742188 3 -25.546875 C 3.988281 -25.359375 4.847656 -24.953125 5.578125 -24.328125 C 6.316406 -23.710938 6.832031 -22.9375 7.125 -22 L 10.9375 -8.078125 Z M 14.765625 -22 "/></g></g></g><g fill="#ffffff" fill-opacity="1"><g transform="translate(131.203722, 294.064639)"><g><path d="M 16.9375 -25 C 17.832031 -25.414062 18.785156 -25.625 19.796875 -25.625 L 19.796875 -5.140625 C 19.796875 -4.054688 19.492188 -3.070312 18.890625 -2.1875 C 18.285156 -1.3125 17.5 -0.640625 16.53125 -0.171875 C 15.6875 0.285156 14.769531 0.5625 13.78125 0.65625 C 13.394531 0.695312 13.050781 0.722656 12.75 0.734375 C 12.457031 0.753906 11.984375 0.773438 11.328125 0.796875 C 10.960938 0.796875 10.648438 0.796875 10.390625 0.796875 C 9.878906 0.796875 9.375 0.78125 8.875 0.75 C 8.382812 0.726562 7.898438 0.695312 7.421875 0.65625 C 6.640625 0.582031 5.894531 0.414062 5.1875 0.15625 C 4.476562 -0.09375 3.867188 -0.472656 3.359375 -0.984375 C 3.222656 -1.097656 3.101562 -1.207031 3 -1.3125 C 2.5 -1.832031 2.101562 -2.414062 1.8125 -3.0625 C 1.519531 -3.71875 1.375 -4.410156 1.375 -5.140625 L 1.375 -25.625 C 2.4375 -25.625 3.425781 -25.394531 4.34375 -24.9375 C 5.300781 -24.46875 6.070312 -23.789062 6.65625 -22.90625 C 7.238281 -22.03125 7.53125 -21.0625 7.53125 -20 L 7.53125 -6.046875 C 7.53125 -5.609375 7.675781 -5.253906 7.96875 -4.984375 C 8.269531 -4.742188 8.617188 -4.625 9.015625 -4.625 L 11.4375 -4.625 L 12.1875 -4.59375 L 12.1875 -4.625 C 12.1875 -4.625 12.191406 -4.625 12.203125 -4.625 C 12.609375 -4.625 12.945312 -4.773438 13.21875 -5.078125 C 13.5 -5.378906 13.640625 -5.726562 13.640625 -6.125 L 13.640625 -20 C 13.640625 -21.070312 13.945312 -22.050781 14.5625 -22.9375 C 15.175781 -23.832031 15.96875 -24.519531 16.9375 -25 Z M 16.9375 -25 "/></g></g></g><g fill="#ffffff" fill-opacity="1"><g transform="translate(152.372646, 294.064639)"><g><path d="M 7.453125 -25.84375 L 7.453125 -6.046875 L 17.9375 -6.046875 C 17.9375 -4.953125 17.679688 -3.941406 17.171875 -3.015625 C 16.671875 -2.085938 16 -1.351562 15.15625 -0.8125 C 14.3125 -0.269531 13.382812 0 12.375 0 L 1.375 0 C 1.375 -0.0195312 1.378906 -0.0351562 1.390625 -0.046875 C 1.398438 -0.0546875 1.40625 -0.0625 1.40625 -0.0625 C 1.40625 -0.0625 1.394531 -0.0625 1.375 -0.0625 L 1.375 -20.296875 C 1.375 -21.316406 1.648438 -22.242188 2.203125 -23.078125 C 2.753906 -23.921875 3.488281 -24.59375 4.40625 -25.09375 C 5.320312 -25.59375 6.335938 -25.84375 7.453125 -25.84375 Z M 7.453125 -25.84375 "/></g></g></g><g fill="#ffffff" fill-opacity="1"><g transform="translate(171.727087, 294.064639)"><g><path d="M 17.4375 -20.265625 C 17.4375 -21.304688 17.703125 -22.25 18.234375 -23.09375 C 18.765625 -23.9375 19.460938 -24.609375 20.328125 -25.109375 C 21.203125 -25.617188 22.15625 -25.875 23.1875 -25.875 L 23.1875 -5.53125 C 23.1875 -4.476562 22.921875 -3.523438 22.390625 -2.671875 C 21.867188 -1.828125 21.171875 -1.148438 20.296875 -0.640625 C 19.429688 -0.140625 18.476562 0.109375 17.4375 0.109375 L 17.4375 -1.890625 L 6.984375 -15.890625 L 6.984375 -5.46875 C 6.984375 -4.445312 6.726562 -3.515625 6.21875 -2.671875 C 5.71875 -1.828125 5.046875 -1.148438 4.203125 -0.640625 C 3.359375 -0.140625 2.414062 0.109375 1.375 0.109375 L 1.375 -20.265625 C 1.375 -21.304688 1.628906 -22.25 2.140625 -23.09375 C 2.660156 -23.9375 3.335938 -24.609375 4.171875 -25.109375 C 5.015625 -25.617188 5.953125 -25.875 6.984375 -25.875 L 17.4375 -10.8125 Z M 17.4375 -20.265625 "/></g></g></g><g fill="#ffffff" fill-opacity="1"><g transform="translate(196.332524, 294.064639)"><g><path d="M 16.71875 -12.703125 C 17.195312 -12.066406 17.570312 -11.347656 17.84375 -10.546875 C 18.125 -9.742188 18.265625 -8.90625 18.265625 -8.03125 L 18.265625 -7.8125 C 18.265625 -6.75 18.0625 -5.742188 17.65625 -4.796875 C 17.25 -3.847656 16.6875 -3.007812 15.96875 -2.28125 C 15.257812 -1.5625 14.429688 -1 13.484375 -0.59375 C 12.546875 -0.195312 11.535156 0 10.453125 0 L 1.59375 0 C 1.59375 -1.113281 1.835938 -2.109375 2.328125 -2.984375 C 2.828125 -3.867188 3.5 -4.570312 4.34375 -5.09375 C 5.1875 -5.625 6.113281 -5.890625 7.125 -5.890625 L 10.453125 -5.890625 C 10.960938 -5.890625 11.410156 -6.082031 11.796875 -6.46875 C 12.179688 -6.851562 12.375 -7.300781 12.375 -7.8125 L 12.375 -8.03125 C 12.375 -8.5625 12.179688 -9.019531 11.796875 -9.40625 C 11.410156 -9.789062 10.960938 -9.984375 10.453125 -9.984375 L 8.578125 -9.984375 C 7.296875 -9.984375 6.109375 -10.265625 5.015625 -10.828125 C 3.921875 -11.398438 3.019531 -12.164062 2.3125 -13.125 C 1.832031 -13.78125 1.453125 -14.5 1.171875 -15.28125 C 0.898438 -16.070312 0.765625 -16.910156 0.765625 -17.796875 L 0.765625 -18.015625 C 0.765625 -19.097656 0.96875 -20.109375 1.375 -21.046875 C 1.78125 -21.992188 2.335938 -22.820312 3.046875 -23.53125 C 3.765625 -24.25 4.59375 -24.8125 5.53125 -25.21875 C 6.476562 -25.625 7.492188 -25.828125 8.578125 -25.828125 L 16.75 -25.828125 C 16.75 -24.722656 16.5 -23.722656 16 -22.828125 C 15.507812 -21.941406 14.847656 -21.238281 14.015625 -20.71875 C 13.179688 -20.195312 12.25 -19.9375 11.21875 -19.9375 L 8.578125 -19.9375 C 8.046875 -19.9375 7.59375 -19.742188 7.21875 -19.359375 C 6.84375 -18.972656 6.65625 -18.523438 6.65625 -18.015625 L 6.65625 -17.796875 C 6.65625 -17.265625 6.84375 -16.8125 7.21875 -16.4375 C 7.59375 -16.0625 8.046875 -15.875 8.578125 -15.875 L 10.453125 -15.875 C 11.734375 -15.875 12.914062 -15.582031 14 -15 C 15.09375 -14.425781 16 -13.660156 16.71875 -12.703125 Z M 16.71875 -12.703125 "/></g></g></g><g fill="#ffffff" fill-opacity="1"><g transform="translate(215.054645, 294.064639)"><g><path d="M 16.3125 -22.515625 C 16.769531 -23.472656 17.390625 -24.242188 18.171875 -24.828125 C 18.960938 -25.421875 19.851562 -25.765625 20.84375 -25.859375 C 21.832031 -25.960938 22.847656 -25.765625 23.890625 -25.265625 L 13.140625 -2.859375 C 12.679688 -1.910156 12.050781 -1.140625 11.25 -0.546875 C 10.457031 0.0351562 9.566406 0.375 8.578125 0.46875 C 7.585938 0.570312 6.570312 0.367188 5.53125 -0.140625 L 9.546875 -8.46875 L 1.375 -25.328125 C 2.414062 -25.816406 3.476562 -26.003906 4.5625 -25.890625 C 5.644531 -25.785156 6.628906 -25.4375 7.515625 -24.84375 C 8.410156 -24.25 9.09375 -23.472656 9.5625 -22.515625 L 12.921875 -15.53125 Z M 16.3125 -22.515625 "/></g></g></g><g fill="#ffffff" fill-opacity="1"><g transform="translate(240.374869, 294.064639)"><g><path d="M 17.4375 -20.265625 C 17.4375 -21.304688 17.703125 -22.25 18.234375 -23.09375 C 18.765625 -23.9375 19.460938 -24.609375 20.328125 -25.109375 C 21.203125 -25.617188 22.15625 -25.875 23.1875 -25.875 L 23.1875 -5.53125 C 23.1875 -4.476562 22.921875 -3.523438 22.390625 -2.671875 C 21.867188 -1.828125 21.171875 -1.148438 20.296875 -0.640625 C 19.429688 -0.140625 18.476562 0.109375 17.4375 0.109375 L 17.4375 -1.890625 L 6.984375 -15.890625 L 6.984375 -5.46875 C 6.984375 -4.445312 6.726562 -3.515625 6.21875 -2.671875 C 5.71875 -1.828125 5.046875 -1.148438 4.203125 -0.640625 C 3.359375 -0.140625 2.414062 0.109375 1.375 0.109375 L 1.375 -20.265625 C 1.375 -21.304688 1.628906 -22.25 2.140625 -23.09375 C 2.660156 -23.9375 3.335938 -24.609375 4.171875 -25.109375 C 5.015625 -25.617188 5.953125 -25.875 6.984375 -25.875 L 17.4375 -10.8125 Z M 17.4375 -20.265625 "/></g></g></g><g fill="#ffffff" fill-opacity="1"><g transform="translate(264.980305, 294.064639)"><g><path d="M 1.515625 -3.296875 C 1.203125 -3.992188 1.046875 -4.726562 1.046875 -5.5 L 1.046875 -20.296875 C 1.046875 -20.316406 1.046875 -20.328125 1.046875 -20.328125 C 1.046875 -20.335938 1.046875 -20.351562 1.046875 -20.375 C 1.046875 -22.007812 1.5 -23.320312 2.40625 -24.3125 C 3.3125 -25.300781 4.5 -25.832031 5.96875 -25.90625 L 5.96875 -25.9375 L 17.109375 -25.9375 L 17.109375 -24.453125 C 17.109375 -23.546875 16.910156 -22.734375 16.515625 -22.015625 C 16.117188 -21.304688 15.554688 -20.738281 14.828125 -20.3125 C 14.109375 -19.894531 13.265625 -19.6875 12.296875 -19.6875 L 12.296875 -20.375 L 8.5 -20.375 C 8.113281 -20.320312 7.765625 -20.15625 7.453125 -19.875 C 7.140625 -19.601562 6.945312 -19.265625 6.875 -18.859375 C 6.875 -18.773438 6.875 -18.695312 6.875 -18.625 L 6.875 -16.828125 C 6.875 -16.753906 6.875 -16.664062 6.875 -16.5625 L 6.875 -6.84375 C 6.945312 -6.425781 7.113281 -6.082031 7.375 -5.8125 C 7.644531 -5.550781 8 -5.421875 8.4375 -5.421875 L 17.25 -5.421875 C 17.25 -4.285156 16.988281 -3.300781 16.46875 -2.46875 C 15.957031 -1.644531 15.273438 -1.003906 14.421875 -0.546875 C 13.566406 -0.0859375 12.628906 0.140625 11.609375 0.140625 L 6.65625 0.140625 L 6.625 0.109375 C 6 0.0546875 5.398438 -0.0703125 4.828125 -0.28125 C 4.265625 -0.5 3.753906 -0.78125 3.296875 -1.125 C 2.910156 -1.414062 2.566406 -1.742188 2.265625 -2.109375 C 1.960938 -2.484375 1.710938 -2.878906 1.515625 -3.296875 Z M 1.515625 -3.296875 "/></g></g></g></svg>